<?xml version="1.0" encoding="utf-8"?>
<!DOCTYPE svg PUBLIC "-//W3C//DTD SVG 1.1//EN" "http://www.w3.org/Graphics/SVG/1.1/DTD/svg11.dtd">
<svg version="1.1" xmlns="http://www.w3.org/2000/svg" xmlns:xlink="http://www.w3.org/1999/xlink" x="0px" y="0px" width="1024px" height="1024px" viewBox="0 0 1024 1024" enable-background="new 0 0 1024 1024" xml:space="preserve">
<metadata> Free Icon Download -- www.onlinewebfonts.com </metadata>

  <path d="M921.6 1024 102.4 1024c-56.5504 0-102.4-45.8496-102.4-102.4L0 102.4c0-56.5504 45.8496-102.4 102.4-102.4l819.2 0c56.5504 0 102.4 45.8496 102.4 102.4l0 819.2C1024 978.1504 978.1504 1024 921.6 1024zM972.8 102.4c0-28.2624-22.912-51.2-51.2-51.2L102.4 51.2C74.1376 51.2 51.2 74.1376 51.2 102.4l0 819.2c0 28.2624 22.9376 51.2 51.2 51.2l819.2 0c28.288 0 51.2-22.9376 51.2-51.2L972.8 102.4zM716.8 409.6c-56.5504 0-102.4-45.8496-102.4-102.4s45.8496-102.4 102.4-102.4 102.4 45.8496 102.4 102.4S773.3504 409.6 716.8 409.6zM716.8 256c-28.2624 0-51.2 22.9376-51.2 51.2s22.9376 51.2 51.2 51.2 51.2-22.9376 51.2-51.2S745.0624 256 716.8 256zM512 614.4c-56.5504 0-102.4-45.8496-102.4-102.4 0-56.5504 45.8496-102.4 102.4-102.4 56.5504 0 102.4 45.8496 102.4 102.4C614.4 568.5504 568.5504 614.4 512 614.4zM512 460.8c-28.2624 0-51.2 22.9376-51.2 51.2 0 28.288 22.9376 51.2 51.2 51.2s51.2-22.912 51.2-51.2C563.2 483.7376 540.2624 460.8 512 460.8zM307.2 819.2c-56.5504 0-102.4-45.8496-102.4-102.4 0-56.5248 45.8496-102.4 102.4-102.4 56.5504 0 102.4 45.8752 102.4 102.4C409.6 773.3504 363.7504 819.2 307.2 819.2zM307.2 665.6c-28.2624 0-51.2 22.9376-51.2 51.2s22.912 51.2 51.2 51.2c28.288 0 51.2-22.9376 51.2-51.2S335.488 665.6 307.2 665.6z" />


</svg>